<svg width="16" height="16" viewBox="0 0 16 16" fill="none" xmlns="http://www.w3.org/2000/svg">
<path d="M14.4729 6.239L14.4729 6.239L14.474 6.24255C14.5081 6.34703 14.5101 6.45931 14.4798 6.56493C14.4495 6.67036 14.3883 6.76432 14.3042 6.83474C14.3041 6.83487 14.304 6.83499 14.3038 6.83511L11.4797 9.18441L11.2391 9.38449L11.3139 9.68829L12.2077 13.3195L12.2075 13.3196L12.2104 13.3304C12.2316 13.4088 12.2345 13.491 12.2189 13.5707L12.7097 13.6666L12.2189 13.5707C12.2034 13.6504 12.1697 13.7255 12.1206 13.7902C12.0715 13.8548 12.0082 13.9074 11.9355 13.9438C11.8639 13.9797 11.785 13.9989 11.7049 14C11.6088 13.999 11.515 13.9707 11.4344 13.9183L11.4344 13.9183L11.4289 13.9148L8.27269 11.9211L8.15036 11.8438H8.00566H7.99316H7.84816L7.72566 11.9214L4.79512 13.7772C4.79495 13.7773 4.79479 13.7774 4.79462 13.7775C4.68953 13.8436 4.56711 13.877 4.44298 13.8733C4.31929 13.8696 4.19949 13.8293 4.09876 13.7575C3.99321 13.6799 3.91324 13.5726 3.86918 13.4492C3.8249 13.3252 3.81894 13.1908 3.85208 13.0634L3.85275 13.0607L4.6965 9.74199L4.77354 9.43896L4.53481 9.23704L1.69731 6.83704L1.69731 6.83703L1.69502 6.83511C1.61069 6.76465 1.54941 6.67054 1.51906 6.56493C1.48872 6.45931 1.49071 6.34703 1.52478 6.24255L1.52529 6.24097C1.55792 6.13977 1.62016 6.0507 1.70396 5.98526C1.78761 5.91994 1.88891 5.88118 1.99479 5.87396C1.99498 5.87395 1.99517 5.87394 1.99537 5.87392L5.68155 5.63651L5.99602 5.61626L6.11342 5.32381L7.51342 1.83631L7.51343 1.83632L7.51475 1.83297C7.55321 1.73514 7.62014 1.65111 7.70689 1.59175C7.79312 1.53276 7.89497 1.50084 7.99941 1.50005C8.10385 1.50084 8.20571 1.53276 8.29193 1.59175C8.37868 1.65111 8.44562 1.73514 8.48407 1.83297L8.4846 1.8343L9.8596 5.30305L9.97569 5.59591L10.29 5.61761L14.0025 5.87386L14.0025 5.87387L14.0055 5.87406C14.1111 5.8807 14.2123 5.9191 14.2957 5.98422C14.3791 6.04935 14.4408 6.13815 14.4729 6.239Z" fill="#FACC15" stroke="white"/>
</svg>
