<svg width="25" height="24" viewBox="0 0 25 24" fill="none" xmlns="http://www.w3.org/2000/svg">
<g id="Bell">
<path id="Vector" d="M5.91967 9.75C5.91842 8.86085 6.0931 7.98025 6.43363 7.1589C6.77417 6.33755 7.27384 5.59169 7.90387 4.96428C8.5339 4.33687 9.28183 3.8403 10.1046 3.50318C10.9273 3.16606 11.8087 2.99505 12.6978 3C16.4103 3.02812 19.3822 6.1125 19.3822 9.83437V10.5C19.3822 13.8562 20.0853 15.8062 20.704 16.875C20.7698 16.9888 20.8044 17.1179 20.8045 17.2493C20.8046 17.3808 20.7702 17.5099 20.7047 17.6239C20.6392 17.7378 20.5449 17.8325 20.4312 17.8985C20.3176 17.9645 20.1886 17.9995 20.0572 18H5.24467C5.11324 17.9995 4.98425 17.9645 4.8706 17.8985C4.75695 17.8325 4.66265 17.7378 4.59713 17.6239C4.53162 17.5099 4.4972 17.3808 4.49731 17.2493C4.49743 17.1179 4.53208 16.9888 4.5978 16.875C5.21655 15.8062 5.91967 13.8562 5.91967 10.5V9.75Z" stroke="#737373" stroke-width="1.5" stroke-linecap="round" stroke-linejoin="round"/>
<path id="Vector_2" d="M9.65088 18V18.75C9.65088 19.5456 9.96695 20.3087 10.5296 20.8713C11.0922 21.4339 11.8552 21.75 12.6509 21.75C13.4465 21.75 14.2096 21.4339 14.7722 20.8713C15.3348 20.3087 15.6509 19.5456 15.6509 18.75V18" stroke="#737373" stroke-width="1.5" stroke-linecap="round" stroke-linejoin="round"/>
</g>
</svg>
