<svg width="20" height="20" viewBox="0 0 20 20" fill="none" xmlns="http://www.w3.org/2000/svg">
<g id="Great Britain">
<path id="Vector" d="M18.3334 9.99999C18.3334 5.39791 14.6022 1.66666 10.0001 1.66666C5.398 1.66666 1.66675 5.39791 1.66675 9.99999C1.66675 14.6021 5.398 18.3333 10.0001 18.3333C14.6022 18.3333 18.3334 14.6021 18.3334 9.99999Z" fill="url(#paint0_linear_733_1034)"/>
<path id="Vector_2" d="M13.0833 3.35492C13.6968 3.63939 14.2643 4.00601 14.7716 4.44145L13.0833 5.71038V3.35492ZM6.91661 3.35492V5.71038L5.22826 4.44145C5.73559 4.00601 6.30306 3.63939 6.91661 3.35492ZM5.22126 15.5525L6.91661 14.2574V16.6451C6.30024 16.3593 5.73038 15.9906 5.22126 15.5525ZM13.0833 14.2574L14.7786 15.5525C14.2695 15.9906 13.6996 16.3593 13.0833 16.6451V14.2574Z" fill="url(#paint1_linear_733_1034)" stroke="#737373" stroke-width="2"/>
<path id="Vector_3" d="M18.2297 8.74999H11.2501V1.77041C10.8413 1.70874 10.4259 1.66666 10.0001 1.66666C9.57425 1.66666 9.15883 1.70874 8.75008 1.77041V8.74999H1.7705C1.70883 9.15874 1.66675 9.57416 1.66675 9.99999C1.66675 10.4258 1.70883 10.8412 1.7705 11.25H8.75008V18.2296C9.15883 18.2912 9.57425 18.3333 10.0001 18.3333C10.4259 18.3333 10.8413 18.2912 11.2501 18.2296V11.25H18.2297C18.2913 10.8412 18.3334 10.4258 18.3334 9.99999C18.3334 9.57416 18.2913 9.15874 18.2297 8.74999ZM17.2972 5.97832C17.1401 5.69416 16.963 5.42332 16.7751 5.16082L12.9167 7.91666H14.5834L17.2972 5.97832ZM7.08342 7.91666L3.22508 5.16041C3.03716 5.42291 2.86008 5.69374 2.703 5.97791L5.41675 7.91666H7.08342ZM2.703 14.0217C2.86008 14.3058 3.03716 14.5767 3.22508 14.8392L7.08342 12.0833H5.41675L2.703 14.0217ZM12.9167 12.0833L16.7751 14.8396C16.963 14.5771 17.1401 14.3062 17.2972 14.0221L14.5834 12.0833H12.9167Z" fill="url(#paint2_linear_733_1034)"/>
</g>
<defs>
<linearGradient id="paint0_linear_733_1034" x1="4.21258" y1="4.21249" x2="15.9051" y2="15.905" gradientUnits="userSpaceOnUse">
<stop stop-color="#DFE9F2"/>
<stop offset="0.998" stop-color="#9EA7B0"/>
</linearGradient>
<linearGradient id="paint1_linear_733_1034" x1="4.36869" y1="4.36875" x2="15.9774" y2="15.9775" gradientUnits="userSpaceOnUse">
<stop stop-color="#0D61A9"/>
<stop offset="1" stop-color="#16528C"/>
</linearGradient>
<linearGradient id="paint2_linear_733_1034" x1="4.90175" y1="4.90166" x2="14.2813" y2="14.2812" gradientUnits="userSpaceOnUse">
<stop offset="0.008" stop-color="#F44F5A"/>
<stop offset="0.447" stop-color="#EE3D4A"/>
<stop offset="1" stop-color="#E52030"/>
</linearGradient>
</defs>
</svg>
