<svg width="20" height="21" viewBox="0 0 20 21" fill="none" xmlns="http://www.w3.org/2000/svg">
<path d="M12.5 13.9375C12.5 13.4297 12.8906 13 13.4375 13H15.3125C15.8203 13 16.25 13.4297 16.25 13.9375V15.8125C16.25 16.3594 15.8203 16.75 15.3125 16.75H13.4375C12.8906 16.75 12.5 16.3594 12.5 15.8125V13.9375ZM15 15.5V14.25H13.75V15.5H15ZM12.5 3.9375C12.5 3.42969 12.8906 3 13.4375 3H15.3125C15.8203 3 16.25 3.42969 16.25 3.9375V5.8125C16.25 6.35938 15.8203 6.75 15.3125 6.75H13.4375C12.8906 6.75 12.5 6.35938 12.5 5.8125V3.9375ZM13.75 4.25V5.5H15V4.25H13.75ZM13.4375 11.75C12.8906 11.75 12.5 11.3594 12.5 10.8125V8.9375C12.5 8.42969 12.8906 8 13.4375 8H15.3125C15.8203 8 16.25 8.42969 16.25 8.9375V10.8125C16.25 11.3594 15.8203 11.75 15.3125 11.75H13.4375ZM13.75 9.25V10.5H15V9.25H13.75ZM17.5 0.5C18.8672 0.5 20 1.63281 20 3V18C20 19.4062 18.8672 20.5 17.5 20.5H11.25C9.84375 20.5 8.75 19.4062 8.75 18V3C8.75 1.63281 9.84375 0.5 11.25 0.5H17.5ZM17.5 1.75H11.25C10.5469 1.75 10 2.33594 10 3V18C10 18.7031 10.5469 19.25 11.25 19.25H17.5C18.1641 19.25 18.75 18.7031 18.75 18V3C18.75 2.33594 18.1641 1.75 17.5 1.75ZM6.875 6.75H2.5C1.79688 6.75 1.25 7.33594 1.25 8V18C1.25 18.7031 1.79688 19.25 2.5 19.25H7.5C7.8125 19.25 8.125 19.5625 8.125 19.875C8.125 20.2266 7.8125 20.5 7.5 20.5H2.5C1.09375 20.5 0 19.4062 0 18V8C0 6.63281 1.09375 5.5 2.5 5.5H6.875C7.1875 5.5 7.5 5.8125 7.5 6.125C7.5 6.47656 7.1875 6.75 6.875 6.75ZM5.3125 13C5.82031 13 6.25 13.4297 6.25 13.9375V15.8125C6.25 16.3594 5.82031 16.75 5.3125 16.75H3.4375C2.89062 16.75 2.5 16.3594 2.5 15.8125V13.9375C2.5 13.4297 2.89062 13 3.4375 13H5.3125ZM5 15.5V14.25H3.75V15.5H5ZM5.3125 8C5.82031 8 6.25 8.42969 6.25 8.9375V10.8125C6.25 11.3594 5.82031 11.75 5.3125 11.75H3.4375C2.89062 11.75 2.5 11.3594 2.5 10.8125V8.9375C2.5 8.42969 2.89062 8 3.4375 8H5.3125ZM5 10.5V9.25H3.75V10.5H5Z" fill="#A3A3A3"/>
</svg>
