<svg width="18" height="21" viewBox="0 0 18 21" fill="none" xmlns="http://www.w3.org/2000/svg">
<path d="M4.625 0.5C4.9375 0.5 5.25 0.8125 5.25 1.125V3H12.75V1.125C12.75 0.8125 13.0234 0.5 13.375 0.5C13.6875 0.5 14 0.8125 14 1.125V3H15.25C16.6172 3 17.75 4.13281 17.75 5.5V18C17.75 19.4062 16.6172 20.5 15.25 20.5H2.75C1.34375 20.5 0.25 19.4062 0.25 18V5.5C0.25 4.13281 1.34375 3 2.75 3H4V1.125C4 0.8125 4.27344 0.5 4.625 0.5ZM16.5 8H1.5V18C1.5 18.7031 2.04688 19.25 2.75 19.25H15.25C15.9141 19.25 16.5 18.7031 16.5 18V8ZM15.25 4.25H2.75C2.04688 4.25 1.5 4.83594 1.5 5.5V6.75H16.5V5.5C16.5 4.83594 15.9141 4.25 15.25 4.25Z" fill="#A3A3A3"/>
</svg>
