<svg width="20" height="20" viewBox="0 0 20 20" fill="none" xmlns="http://www.w3.org/2000/svg">
<g id="CirclesFour">
<path id="Vector" d="M5.9375 8.75C7.4908 8.75 8.75 7.4908 8.75 5.9375C8.75 4.3842 7.4908 3.125 5.9375 3.125C4.3842 3.125 3.125 4.3842 3.125 5.9375C3.125 7.4908 4.3842 8.75 5.9375 8.75Z" stroke="#737373" stroke-width="1.5" stroke-linecap="round" stroke-linejoin="round"/>
<path id="Vector_2" d="M14.0625 8.75C15.6158 8.75 16.875 7.4908 16.875 5.9375C16.875 4.3842 15.6158 3.125 14.0625 3.125C12.5092 3.125 11.25 4.3842 11.25 5.9375C11.25 7.4908 12.5092 8.75 14.0625 8.75Z" stroke="#737373" stroke-width="1.5" stroke-linecap="round" stroke-linejoin="round"/>
<path id="Vector_3" d="M5.9375 16.875C7.4908 16.875 8.75 15.6158 8.75 14.0625C8.75 12.5092 7.4908 11.25 5.9375 11.25C4.3842 11.25 3.125 12.5092 3.125 14.0625C3.125 15.6158 4.3842 16.875 5.9375 16.875Z" stroke="#737373" stroke-width="1.5" stroke-linecap="round" stroke-linejoin="round"/>
<path id="Vector_4" d="M14.0625 16.875C15.6158 16.875 16.875 15.6158 16.875 14.0625C16.875 12.5092 15.6158 11.25 14.0625 11.25C12.5092 11.25 11.25 12.5092 11.25 14.0625C11.25 15.6158 12.5092 16.875 14.0625 16.875Z" stroke="#737373" stroke-width="1.5" stroke-linecap="round" stroke-linejoin="round"/>
</g>
</svg>
