<svg width="24" height="24" viewBox="0 0 24 24" fill="none" xmlns="http://www.w3.org/2000/svg">
<g id="DotsThreeOutline">
<path id="Vector" d="M14.5625 12.0002C14.5625 12.507 14.4122 13.0023 14.1306 13.4236C13.8491 13.845 13.4489 14.1735 12.9806 14.3674C12.5124 14.5614 11.9972 14.6121 11.5001 14.5133C11.003 14.4144 10.5464 14.1703 10.188 13.812C9.82967 13.4536 9.58561 12.997 9.48674 12.4999C9.38786 12.0028 9.43861 11.4876 9.63256 11.0194C9.82651 10.5511 10.155 10.1509 10.5764 9.86936C10.9977 9.58781 11.4931 9.43752 11.9999 9.4375C12.6788 9.43994 13.3292 9.71071 13.8092 10.1908C14.2893 10.6709 14.5601 11.3213 14.5625 12.0002ZM3.07635 9.86936C3.49772 9.58781 3.99311 9.43752 4.49989 9.4375C5.17878 9.43994 5.82918 9.71071 6.30923 10.1908C6.78928 10.6708 7.06005 11.3212 7.0625 12.0001C7.06248 12.5069 6.9122 13.0023 6.63064 13.4236C6.34907 13.845 5.94886 14.1735 5.48063 14.3674C5.01239 14.5614 4.49716 14.6121 4.00008 14.5133C3.50301 14.4144 3.04641 14.1703 2.68804 13.812C2.32967 13.4536 2.08561 12.997 1.98674 12.4999C1.88786 12.0028 1.93861 11.4876 2.13256 11.0194C2.32651 10.5511 2.65495 10.1509 3.07635 9.86936ZM18.0764 9.86936C18.4977 9.58781 18.9931 9.43752 19.4999 9.4375C20.1788 9.43994 20.8292 9.71071 21.3092 10.1908C21.7893 10.6709 22.0601 11.3213 22.0625 12.0002C22.0625 12.507 21.9122 13.0023 21.6306 13.4236C21.3491 13.845 20.9489 14.1735 20.4806 14.3674C20.0124 14.5614 19.4972 14.6121 19.0001 14.5133C18.503 14.4144 18.0464 14.1703 17.688 13.812C17.3297 13.4536 17.0856 12.997 16.9867 12.4999C16.8879 12.0028 16.9386 11.4876 17.1326 11.0194C17.3265 10.5511 17.655 10.1509 18.0764 9.86936Z" fill="#737373" stroke="#737373" stroke-width="0.125"/>
</g>
</svg>
