<svg width="20" height="20" viewBox="0 0 20 20" fill="none" xmlns="http://www.w3.org/2000/svg">
<g id="GlobeStand">
<path id="Vector" d="M10 13.125C13.1066 13.125 15.625 10.6066 15.625 7.5C15.625 4.3934 13.1066 1.875 10 1.875C6.8934 1.875 4.375 4.3934 4.375 7.5C4.375 10.6066 6.8934 13.125 10 13.125Z" stroke="#737373" stroke-width="1.5" stroke-linecap="round" stroke-linejoin="round"/>
<path id="Vector_2" d="M15.7423 13.2422C14.2193 14.7651 12.1538 15.6207 10.0001 15.6207C7.84634 15.6207 5.78081 14.7651 4.25789 13.2422C2.73496 11.7193 1.87939 9.65374 1.87939 7.5C1.87939 5.34626 2.73496 3.28074 4.25789 1.75781" stroke="#737373" stroke-width="1.5" stroke-linecap="round" stroke-linejoin="round"/>
<path id="Vector_3" d="M7.5 18.125H12.5" stroke="#737373" stroke-width="1.5" stroke-linecap="round" stroke-linejoin="round"/>
<path id="Vector_4" d="M10 15.625V18.125" stroke="#737373" stroke-width="1.5" stroke-linecap="round" stroke-linejoin="round"/>
</g>
</svg>
