<svg width="119" height="32" viewBox="0 0 119 32" fill="none" xmlns="http://www.w3.org/2000/svg">
<g id="LogoCordage">
<path id="Vector" d="M118.822 10.7723C118.822 12.2719 117.636 13.4825 116.168 13.4825C114.712 13.4825 113.527 12.2719 113.527 10.7723C113.527 9.27272 114.712 8.06206 116.168 8.06206C117.636 8.06206 118.822 9.27272 118.822 10.7723ZM118.35 10.7723C118.35 9.54787 117.367 8.54357 116.168 8.54357C114.968 8.54357 113.985 9.54787 113.985 10.7723C113.985 12.0105 114.968 13.001 116.168 13.001C117.367 13.001 118.35 12.0105 118.35 10.7723ZM116.612 11.185L117.232 12.148H116.68L116.141 11.24H115.75V12.148H115.278V9.31399H116.262C116.828 9.31399 117.246 9.67169 117.246 10.2908C117.232 10.7585 116.976 11.075 116.612 11.185ZM116.76 10.277C116.76 9.91932 116.531 9.78175 116.248 9.78175H115.75V10.7585H116.248C116.518 10.7723 116.76 10.621 116.76 10.277Z" fill="#ED5E2E"/>
<path id="Vector_2" d="M-0.00611877 16.5645C-0.00611877 11.7081 3.34902 8.11742 8.01118 8.11742C10.0997 8.11742 11.8514 8.65396 13.0641 9.31432L11.8514 14.8311H10.9351C10.3153 13.6617 9.62812 11.8319 8.9544 10.4424C8.59059 9.57571 7.94381 9.27305 7.32399 9.27305C5.39714 9.27305 4.13054 11.5293 4.13054 14.666C4.13054 18.752 6.28645 21.5448 9.76286 21.5448C10.7734 21.5448 11.9188 21.2421 12.5925 20.7193L13.0506 21.3797C11.9053 23.2782 10.1536 24.2687 7.58 24.2687C2.63487 24.2825 -0.00611877 20.8156 -0.00611877 16.5645Z" fill="#ED5E2E"/>
<path id="Vector_3" d="M15.3392 16.2619C15.3392 12.0108 17.7781 8.11742 23.1275 8.11742C28.3017 8.11742 30.8079 11.543 30.8079 16.0693C30.8079 20.4579 28.3286 24.2825 23.0601 24.2825C17.7108 24.2825 15.3392 20.6505 15.3392 16.2619ZM26.3075 16.6333C26.3075 12.1484 24.9735 9.12172 22.8176 9.12172C20.8907 9.12172 19.7858 11.5155 19.7858 15.7666C19.7858 20.2928 21.1602 23.2782 23.2757 23.2782C25.2025 23.2782 26.3075 20.8844 26.3075 16.6333Z" fill="#ED5E2E"/>
<path id="Vector_4" d="M45.0104 8.87375L43.8112 14.7207H42.7063C42.4098 13.5926 42.0864 12.3957 41.763 11.3914C41.534 10.6622 40.9546 10.4559 40.3617 10.8273C39.944 11.0612 39.3781 11.529 38.7717 12.0517C38.7448 15.0096 38.7448 18.2701 38.7717 21.5032C38.7717 22.2048 39.0008 22.6038 39.688 22.7276L41.4127 23.0302V23.897H32.816V23.0302L33.5975 22.8652C34.2173 22.6588 34.4734 22.3011 34.4734 21.5995C34.5003 18.1738 34.5003 14.7757 34.4734 11.3501C34.4734 10.6485 34.2173 10.2495 33.5301 10.1257L32.5196 10.0294L32.4926 9.13515C34.1904 8.83248 35.8747 8.5023 37.6668 8.10333H38.354L38.6774 10.8273C39.0008 10.5247 39.3646 10.222 39.7149 9.9606C41.2106 8.66739 42.2885 8.06206 43.3261 8.06206C44.0941 8.07582 44.687 8.37848 45.0104 8.87375Z" fill="#ED5E2E"/>
<path id="Vector_5" d="M62.8921 22.4793V23.3461C61.6524 23.5387 59.6717 23.8826 58.1626 24.2128L57.637 24.1853L56.9903 22.2867C55.8449 23.3185 54.2819 24.3091 52.3955 24.3091C48.6765 24.3091 46.2781 21.1173 46.2781 16.7287C46.2781 11.4045 49.5658 8.07521 54.0933 8.07521C55.0634 8.07521 55.9527 8.28158 56.6938 8.61176C56.6938 6.87831 56.6938 5.15862 56.6669 3.45269C56.6669 2.84736 56.5052 2.44839 55.818 2.32457C55.2655 2.22827 54.74 2.15948 54.1606 2.06318V1.19645C56.0875 0.866274 58.3647 0.398518 60.3185 -0.000450134H61.1C61.1 4.25062 61.073 14.8714 61.1 21.1586C61.1 21.929 61.4638 22.2179 62.0701 22.3555L62.8921 22.4793ZM54.5514 22.2867C55.3329 22.2867 56.0201 21.9153 56.7073 21.3237C56.7343 18.9024 56.7343 16.0958 56.7343 13.2068C56.5995 10.5791 55.3329 9.1483 53.972 9.1483C52.1799 9.1483 50.9133 11.1707 50.9133 14.8302C50.8998 19.0262 52.1125 22.2867 54.5514 22.2867Z" fill="#ED5E2E"/>
<path id="Vector_6" d="M79.398 22.4803V23.347C77.9023 23.6084 76.3662 23.8835 74.7762 24.2137L74.2238 24.1862L73.5366 22.0538C71.6501 23.3883 70.0467 24.2825 68.2007 24.2825C65.8561 24.2825 64.2931 22.8242 64.2931 20.623C64.2931 18.3943 65.7618 16.991 68.4028 16.0693C69.2113 15.7666 71.5962 15.0374 73.294 14.5422V13.4828C73.294 10.4837 72.3104 9.1905 70.9495 9.1905C69.9658 9.1905 69.2247 9.75456 68.4432 11.4467C67.9177 12.4785 67.6617 13.2077 67.2036 14.3771H66.3547L64.859 10.7864C67.1227 9.17675 69.5616 8.11742 71.9735 8.11742C75.0322 8.11742 77.6059 9.38311 77.5789 13.0426C77.5789 15.6015 77.5789 18.862 77.6059 21.1183C77.6059 21.9162 77.9697 22.2189 78.5895 22.3427L79.398 22.4803ZM70.6665 22.4803C71.475 22.4803 72.3239 22.0125 73.3075 21.1871V15.4364C72.6607 15.6015 71.9735 15.8629 71.2863 16.1381C69.4269 16.9085 68.7127 18.4356 68.7127 19.8939C68.7127 21.4209 69.3325 22.4803 70.6665 22.4803Z" fill="#ED5E2E"/>
<path id="Vector_7" d="M93.3086 10.2074C94.0901 11.1429 94.4809 12.3398 94.4809 13.6606C94.4809 16.6184 91.8803 19.0535 87.6763 19.0535C86.8274 19.0535 86.0863 18.9572 85.3587 18.8196L83.7687 21.1447C85.6282 21.1171 87.2586 21.1171 89.2393 21.1171C94.3596 21.1171 96.017 22.5479 96.017 25.1756C96.017 28.9727 92.6618 31.9993 87.7167 31.9993C84.4559 31.9993 81.3029 31.0638 79.6725 29.4404C80.7774 27.9134 81.9496 26.3175 82.9602 24.8867H82.5021C82.1383 23.8274 81.7475 22.5892 81.3972 21.5299C82.5425 20.5256 83.5531 19.535 84.5502 18.5995C82.1383 17.7328 80.9391 15.8755 80.966 13.5505C80.966 10.5514 83.5666 8.13004 87.7706 8.13004C89.7918 8.13004 91.3548 8.59779 92.4597 9.42324C93.5377 8.7904 94.6695 8.08876 95.7205 7.40089H96.3403C96.3134 8.50149 96.3134 9.42324 96.3403 10.2212C95.2624 10.2074 94.2922 10.1799 93.3086 10.2074ZM88.1614 24.8454H83.9978C83.5396 25.6158 83.0815 26.4138 82.5964 27.2392C84.4559 28.5324 87.8784 29.4404 90.735 29.4404C93.0526 29.4404 94.2922 28.5737 94.2922 27.0191C94.2922 25.4783 92.5945 24.8454 88.1614 24.8454ZM90.5733 13.7981C90.5733 10.7027 89.3067 9.14809 87.582 9.14809C85.9515 9.14809 84.914 10.5789 84.914 13.3441C84.914 16.3983 86.1537 18.063 87.9053 18.063C89.5088 18.063 90.5733 16.5634 90.5733 13.7981Z" fill="#ED5E2E"/>
<path id="Vector_8" d="M101.739 16.3307C102.264 19.6187 104.34 21.5585 107.21 21.5585C108.355 21.5585 109.366 21.2558 110.107 20.7331L110.565 21.3934C109.46 23.292 107.668 24.2825 105.027 24.2825C100.176 24.2825 97.4676 20.8844 97.4676 16.4957C97.4676 11.543 100.728 8.11742 105.027 8.11742C108.867 8.11742 111.212 10.8414 110.982 14.9962L110.201 16.2894C107.479 16.3307 104.582 16.3582 101.739 16.3307ZM101.645 15.3264L106.927 15.2301C107.183 11.5018 106.078 9.17675 104.555 9.17675C102.857 9.17675 101.618 11.4055 101.618 14.5972C101.618 14.8311 101.618 15.1062 101.645 15.3264Z" fill="#ED5E2E"/>
</g>
</svg>
