<svg width="20" height="21" viewBox="0 0 20 21" fill="none" xmlns="http://www.w3.org/2000/svg">
<path d="M10 0.5C15.5078 0.5 20 4.99219 20 10.5C20 16.0469 15.5078 20.5 10 20.5C4.45312 20.5 0 16.0469 0 10.5C0 4.99219 4.45312 0.5 10 0.5ZM10 19.25C10.625 19.25 11.5625 18.7031 12.3828 17.0234C12.7734 16.2422 13.125 15.3047 13.3203 14.25H6.64062C6.83594 15.3047 7.1875 16.2422 7.57812 17.0234C8.39844 18.7031 9.33594 19.25 10 19.25ZM6.40625 13H13.5547C13.6719 12.2188 13.75 11.3984 13.75 10.5C13.75 9.64062 13.6719 8.82031 13.5547 8H6.40625C6.28906 8.82031 6.25 9.64062 6.25 10.5C6.25 11.3984 6.28906 12.2188 6.40625 13ZM13.3203 6.75C13.125 5.69531 12.7734 4.79688 12.3828 4.01562C11.5625 2.33594 10.625 1.75 10 1.75C9.33594 1.75 8.39844 2.33594 7.57812 4.01562C7.1875 4.79688 6.83594 5.69531 6.64062 6.75H13.3203ZM14.8047 8C14.9219 8.82031 15 9.64062 15 10.5C15 11.3984 14.9219 12.2188 14.8047 13H18.3594C18.5938 12.2188 18.75 11.3984 18.75 10.5C18.75 9.64062 18.5938 8.82031 18.3594 8H14.8047ZM12.7734 2.21875C13.5938 3.3125 14.2578 4.91406 14.6094 6.75H17.8906C16.875 4.64062 15.0391 3 12.7734 2.21875ZM7.1875 2.21875C4.92188 3 3.08594 4.64062 2.07031 6.75H5.35156C5.70312 4.91406 6.36719 3.3125 7.1875 2.21875ZM1.25 10.5C1.25 11.3984 1.36719 12.2188 1.60156 13H5.15625C5.03906 12.2188 5 11.3984 5 10.5C5 9.64062 5.03906 8.82031 5.15625 8H1.60156C1.36719 8.82031 1.25 9.64062 1.25 10.5ZM17.8906 14.25H14.6094C14.2578 16.125 13.5938 17.6875 12.7734 18.8203C15.0391 18.0391 16.875 16.3984 17.8906 14.25ZM5.35156 14.25H2.07031C3.08594 16.3984 4.92188 18.0391 7.1875 18.8203C6.36719 17.6875 5.70312 16.125 5.35156 14.25Z" fill="#A3A3A3"/>
</svg>
