<svg width="24" height="24" viewBox="0 0 24 24" fill="none" xmlns="http://www.w3.org/2000/svg">
<path d="M14.625 6.75V3C14.625 2.58579 14.2892 2.25 13.875 2.25L10.125 2.25C9.71079 2.25 9.375 2.58579 9.375 3V6.75C9.375 7.16421 9.71079 7.5 10.125 7.5H13.875C14.2892 7.5 14.625 7.16421 14.625 6.75Z" stroke="#A3A3A3" stroke-width="1.5" stroke-linecap="round" stroke-linejoin="round"/>
<path d="M20.25 20.25V15.75C20.25 15.3358 19.9142 15 19.5 15H15C14.5858 15 14.25 15.3358 14.25 15.75V20.25C14.25 20.6642 14.5858 21 15 21H19.5C19.9142 21 20.25 20.6642 20.25 20.25Z" stroke="#A3A3A3" stroke-width="1.5" stroke-linecap="round" stroke-linejoin="round"/>
<path d="M9.75 20.25V15.75C9.75 15.3358 9.41421 15 9 15H4.5C4.08579 15 3.75 15.3358 3.75 15.75V20.25C3.75 20.6642 4.08579 21 4.5 21H9C9.41421 21 9.75 20.6642 9.75 20.25Z" stroke="#A3A3A3" stroke-width="1.5" stroke-linecap="round" stroke-linejoin="round"/>
<path d="M12 7.5V11.25" stroke="#A3A3A3" stroke-width="1.5" stroke-linecap="round" stroke-linejoin="round"/>
<path d="M6.74998 15V13.5C6.74874 13.2042 6.80609 12.9111 6.91872 12.6375C7.03136 12.364 7.19705 12.1154 7.40622 11.9063C7.6154 11.6971 7.86393 11.5314 8.13748 11.4188C8.41102 11.3061 8.70416 11.2488 8.99998 11.25L15 11.25C15.2958 11.2488 15.5889 11.3061 15.8625 11.4188C16.136 11.5314 16.3846 11.6971 16.5937 11.9063C16.8029 12.1154 16.9686 12.364 17.0812 12.6375C17.1939 12.9111 17.2512 13.2042 17.25 13.5V15" stroke="#A3A3A3" stroke-width="1.5" stroke-linecap="round" stroke-linejoin="round"/>
</svg>
