<svg width="21" height="18" viewBox="0 0 21 18" fill="none" xmlns="http://www.w3.org/2000/svg">
<path d="M9.35938 1.3125C10.1016 0.0625 11.8594 0.0625 12.6016 1.3125L20.2578 14.4375C21 15.6875 20.1016 17.25 18.6562 17.25H3.30469C1.85938 17.25 0.960938 15.6875 1.70312 14.4375L9.35938 1.3125ZM11.5078 1.9375C11.2734 1.54688 10.6875 1.54688 10.4531 1.9375L8.07031 6H13.8906L11.5078 1.9375ZM16.8203 11L14.6328 7.25H7.32812L5.14062 11H16.8203ZM4.4375 12.25L2.79688 15.0625C2.52344 15.4922 2.83594 16 3.30469 16H18.6562C19.125 16 19.4375 15.4922 19.1641 15.0625L17.5625 12.25H4.4375Z" fill="#A3A3A3"/>
</svg>
