<svg width="24" height="21" viewBox="0 0 24 21" fill="none" xmlns="http://www.w3.org/2000/svg">
<path d="M13.875 0.5C14.8906 0.5 15.75 1.35938 15.75 2.375V3H17.625C18.6406 3 19.5 3.85938 19.5 4.875V9.79688L20.7891 10.2266C22.1562 10.6562 22.5469 12.375 21.4922 13.3516L18.0156 16.5938C17.7812 16.8281 17.3906 16.8281 17.1562 16.5547C16.9219 16.3203 16.9219 15.9297 17.1953 15.6953L20.6328 12.4531C20.9844 12.1406 20.8672 11.5547 20.3984 11.3984L12.625 8.85938V15.5C12.625 15.8516 12.3125 16.125 11.9609 16.125C11.6484 16.125 11.3359 15.8516 11.3359 15.5V8.85938L3.5625 11.3984C3.09375 11.5547 2.97656 12.1406 3.32812 12.4531L6.76562 15.6953C7.03906 15.9297 7.03906 16.3203 6.80469 16.5547C6.57031 16.8281 6.17969 16.8281 5.94531 16.5938L2.46875 13.3516C1.41406 12.375 1.80469 10.6562 3.17188 10.2266L4.46094 9.79688V4.875C4.46094 3.85938 5.32031 3 6.33594 3H8.21094V2.375C8.21094 1.35938 9.07031 0.5 10.0859 0.5H13.875ZM14.5 3V2.375C14.5 2.0625 14.1875 1.75 13.875 1.75H10.0859C9.77344 1.75 9.46094 2.0625 9.46094 2.375V3H14.5ZM6.33594 4.25C6.02344 4.25 5.71094 4.5625 5.71094 4.875V9.36719L11.4141 7.53125C11.7656 7.41406 12.1953 7.41406 12.5469 7.53125L18.25 9.36719V4.875C18.25 4.5625 17.9375 4.25 17.625 4.25H6.33594ZM5.94531 18.4297C6.60938 18.8594 7.42969 19.25 8.21094 19.25C9.03125 19.25 9.85156 18.8594 10.5156 18.4297C10.8672 18.1953 11.2188 17.8828 11.5312 17.5703C11.7656 17.3359 12.1953 17.3359 12.4297 17.5703C12.7422 17.8828 13.0547 18.1953 13.4453 18.4297C14.1094 18.8594 14.9297 19.25 15.7109 19.25C16.5312 19.25 17.3516 18.8594 18.0156 18.4297C18.3672 18.1953 18.7188 17.8828 19.0312 17.5703C19.2656 17.3359 19.6953 17.3359 19.9297 17.5703C20.2422 17.8828 20.5547 18.1953 20.9453 18.4297C21.4531 18.7812 22.0391 19.0938 22.6641 19.2109C22.9766 19.2891 23.25 19.5234 23.25 19.8359C23.25 20.1875 22.8984 20.5391 22.5469 20.4609C21.6484 20.3047 20.8281 19.875 20.2422 19.4844C19.9297 19.25 19.6953 19.0547 19.4609 18.8594C19.2656 19.0547 19.0312 19.25 18.7188 19.4844C17.9766 19.9531 16.9219 20.5 15.7109 20.5C14.5391 20.5 13.4844 19.9531 12.7422 19.4844C12.4297 19.25 12.1953 19.0547 11.9609 18.8594C11.7656 19.0547 11.5312 19.25 11.2188 19.4844C10.4766 19.9531 9.42188 20.5 8.21094 20.5C7.03906 20.5 5.98438 19.9531 5.24219 19.4844C4.92969 19.25 4.69531 19.0547 4.46094 18.8594C4.26562 19.0547 4.03125 19.25 3.71875 19.4844C3.13281 19.875 2.3125 20.3047 1.41406 20.4609C1.0625 20.5391 0.75 20.1875 0.75 19.8359C0.75 19.5234 0.984375 19.2891 1.29688 19.2109C1.92188 19.0938 2.50781 18.7812 3.01562 18.4297C3.36719 18.1953 3.71875 17.8828 4.03125 17.5703C4.26562 17.3359 4.69531 17.3359 4.92969 17.5703C5.24219 17.8828 5.59375 18.1953 5.94531 18.4297Z" fill="#A3A3A3"/>
</svg>
