<svg width="20" height="19" viewBox="0 0 20 19" fill="none" xmlns="http://www.w3.org/2000/svg">
<path d="M1.25 15.125C1.25 16.1797 2.07031 17 3.125 17H19.375C19.6875 17 20 17.3125 20 17.625C20 17.9766 19.6875 18.25 19.375 18.25H3.125C1.36719 18.25 0 16.8828 0 15.125V1.375C0 1.0625 0.273438 0.75 0.625 0.75C0.9375 0.75 1.25 1.0625 1.25 1.375V15.125ZM12.9297 11.2188C12.6953 11.4531 12.2656 11.4531 12.0312 11.2188L8.71094 7.89844L4.80469 11.8438C4.57031 12.0781 4.14062 12.0781 3.90625 11.8438C3.67188 11.6094 3.67188 11.1797 3.90625 10.9453L8.28125 6.57031C8.51562 6.33594 8.94531 6.33594 9.17969 6.57031L12.5 9.89062L17.6562 4.69531C17.8906 4.46094 18.3203 4.46094 18.5547 4.69531C18.7891 4.92969 18.7891 5.35938 18.5547 5.59375L12.9297 11.2188Z" fill="#A3A3A3"/>
</svg>
