<svg width="25" height="24" viewBox="0 0 25 24" fill="none" xmlns="http://www.w3.org/2000/svg">
<g id="Storefront">
<path id="Vector" d="M4.82544 13.0875V19.5C4.82544 19.6989 4.90446 19.8897 5.04511 20.0303C5.18576 20.171 5.37653 20.25 5.57544 20.25H19.0754C19.2744 20.25 19.4651 20.171 19.6058 20.0303C19.7464 19.8897 19.8254 19.6989 19.8254 19.5V13.0875" stroke="#737373" stroke-width="1.5" stroke-linecap="round" stroke-linejoin="round"/>
<path id="Vector_2" d="M5.38794 3.75H19.2629C19.4256 3.75134 19.5836 3.8049 19.7136 3.9028C19.8435 4.00069 19.9386 4.13774 19.9848 4.29375L21.3254 9H3.32544L4.66606 4.29375C4.71226 4.13774 4.80734 4.00069 4.93731 3.9028C5.06727 3.8049 5.22524 3.75134 5.38794 3.75V3.75Z" stroke="#737373" stroke-width="1.5" stroke-linecap="round" stroke-linejoin="round"/>
<path id="Vector_3" d="M9.32544 9V10.5C9.32544 11.2956 9.00937 12.0587 8.44676 12.6213C7.88415 13.1839 7.12109 13.5 6.32544 13.5C5.52979 13.5 4.76673 13.1839 4.20412 12.6213C3.64151 12.0587 3.32544 11.2956 3.32544 10.5V9" stroke="#737373" stroke-width="1.5" stroke-linecap="round" stroke-linejoin="round"/>
<path id="Vector_4" d="M15.3254 9V10.5C15.3254 11.2956 15.0094 12.0587 14.4468 12.6213C13.8842 13.1839 13.1211 13.5 12.3254 13.5C11.5298 13.5 10.7667 13.1839 10.2041 12.6213C9.64151 12.0587 9.32544 11.2956 9.32544 10.5V9" stroke="#737373" stroke-width="1.5" stroke-linecap="round" stroke-linejoin="round"/>
<path id="Vector_5" d="M21.3254 9V10.5C21.3254 11.2956 21.0094 12.0587 20.4468 12.6213C19.8842 13.1839 19.1211 13.5 18.3254 13.5C17.5298 13.5 16.7667 13.1839 16.2041 12.6213C15.6415 12.0587 15.3254 11.2956 15.3254 10.5V9" stroke="#737373" stroke-width="1.5" stroke-linecap="round" stroke-linejoin="round"/>
</g>
</svg>
