<svg width="18" height="19" viewBox="0 0 18 19" fill="none" xmlns="http://www.w3.org/2000/svg">
<path d="M5.25 10.75C4.89844 10.75 4.625 10.4766 4.625 10.125V5.125C4.625 4.8125 4.89844 4.5 5.25 4.5C5.5625 4.5 5.875 4.8125 5.875 5.125V10.125C5.875 10.4766 5.5625 10.75 5.25 10.75ZM12.125 5.125C12.125 4.8125 12.3984 4.5 12.75 4.5C13.0625 4.5 13.375 4.8125 13.375 5.125V12.625C13.375 12.9766 13.0625 13.25 12.75 13.25C12.3984 13.25 12.125 12.9766 12.125 12.625V5.125ZM9 9.5C8.64844 9.5 8.375 9.22656 8.375 8.875V5.125C8.375 4.8125 8.64844 4.5 9 4.5C9.3125 4.5 9.625 4.8125 9.625 5.125V8.875C9.625 9.22656 9.3125 9.5 9 9.5ZM0.25 3.25C0.25 1.88281 1.34375 0.75 2.75 0.75H15.25C16.6172 0.75 17.75 1.88281 17.75 3.25V15.75C17.75 17.1562 16.6172 18.25 15.25 18.25H2.75C1.34375 18.25 0.25 17.1562 0.25 15.75V3.25ZM2.75 17H15.25C15.9141 17 16.5 16.4531 16.5 15.75V3.25C16.5 2.58594 15.9141 2 15.25 2H2.75C2.04688 2 1.5 2.58594 1.5 3.25V15.75C1.5 16.4531 2.04688 17 2.75 17Z" fill="#A3A3A3"/>
</svg>
