<svg width="14" height="16" viewBox="0 0 14 16" fill="none" xmlns="http://www.w3.org/2000/svg">
<path id="Vector" d="M0 8.36795C0 3.55706 3.39872 0 8.12144 0C10.2371 0 12.0115 0.531514 13.24 1.18569L12.0115 6.65075H11.0834C10.4555 5.49232 9.75938 3.67972 9.07691 2.30323C8.70837 1.44463 8.0532 1.1448 7.42532 1.1448C5.47344 1.1448 4.19039 3.37989 4.19039 6.48721C4.19039 10.5349 6.37431 13.3015 9.89588 13.3015C10.9196 13.3015 12.0798 13.0017 12.7623 12.4838L13.2264 13.138C12.0661 15.0187 10.2917 16 7.68466 16C2.6753 16.0136 0 12.5792 0 8.36795Z" fill="#ED5E2E"/>
</svg>
