<svg width="24" height="24" viewBox="0 0 24 24" fill="none" xmlns="http://www.w3.org/2000/svg">
<path d="M8.82187 17.3062C7.75312 20.4844 3.51562 20.4844 3.51562 20.4844C3.51562 20.4844 3.51562 16.2469 6.69375 15.1781" stroke="#A3A3A3" stroke-width="1.5" stroke-linecap="round" stroke-linejoin="round"/>
<path d="M18.3656 9.88126L12 16.2469L7.75313 12L14.1188 5.63439C16.5281 3.22501 18.9375 3.25314 19.9688 3.40314C20.1279 3.42437 20.2756 3.49737 20.3891 3.61089C20.5026 3.72441 20.5756 3.87213 20.5969 4.03126C20.7469 5.06251 20.775 7.47189 18.3656 9.88126Z" stroke="#A3A3A3" stroke-width="1.5" stroke-linecap="round" stroke-linejoin="round"/>
<path d="M17.3063 10.9406V16.9969C17.3034 17.1947 17.2226 17.3834 17.0813 17.5219L14.0531 20.5594C13.9571 20.6553 13.8367 20.7234 13.705 20.7563C13.5733 20.7893 13.4351 20.7858 13.3052 20.7464C13.1752 20.7069 13.0585 20.6329 12.9673 20.5323C12.8761 20.4317 12.814 20.3082 12.7875 20.175L12 16.2469" stroke="#A3A3A3" stroke-width="1.5" stroke-linecap="round" stroke-linejoin="round"/>
<path d="M13.0594 6.69373H7.00313C6.80531 6.69654 6.61661 6.77742 6.47813 6.91873L3.44063 9.94685C3.34467 10.0429 3.2766 10.1632 3.24366 10.295C3.21073 10.4267 3.21418 10.5649 3.25363 10.6948C3.29309 10.8247 3.36708 10.9415 3.46771 11.0327C3.56834 11.1239 3.69183 11.186 3.82501 11.2125L7.75313 12" stroke="#A3A3A3" stroke-width="1.5" stroke-linecap="round" stroke-linejoin="round"/>
</svg>
