<svg width="24" height="24" viewBox="0 0 24 24" fill="none" xmlns="http://www.w3.org/2000/svg">
<path d="M1.79453 17.5245C1.56803 17.8935 1.31353 18.322 1.09753 18.663C0.904027 18.9895 1.00803 19.4105 1.33103 19.61L5.86253 22.396C6.19003 22.598 6.61953 22.4965 6.82203 22.1695C6.82403 22.166 6.82603 22.163 6.82803 22.1595C7.00953 21.8565 7.24303 21.463 7.49703 21.0415C9.29203 18.0815 11.0975 18.4435 14.3535 19.997L18.8465 22.1315C19.194 22.297 19.61 22.1495 19.7755 21.802C19.7785 21.796 19.7815 21.7895 19.784 21.7835L21.9415 16.9085C22.094 16.5605 21.939 16.1545 21.593 15.996C20.645 15.5505 18.759 14.6625 17.0615 13.844C10.9545 10.88 5.76453 11.0715 1.79453 17.5245Z" fill="url(#paint0_linear_665_1693)"/>
<path d="M22.2059 5.98401C22.4324 5.61551 22.6864 5.18751 22.9024 4.84701C23.0959 4.52101 22.9919 4.10001 22.6689 3.90101L18.1404 1.11901C17.8214 0.904507 17.3884 0.988507 17.1734 1.30751C17.1644 1.32101 17.1559 1.33451 17.1479 1.34851C16.9669 1.65101 16.7334 2.04401 16.4789 2.46501C14.6849 5.42101 12.8804 5.05951 9.62739 3.50851L5.15139 1.38701C4.80389 1.22201 4.38839 1.36951 4.22289 1.71601C4.22039 1.72201 4.21739 1.72801 4.21439 1.73451L2.05839 6.60351C1.90589 6.95101 2.06089 7.35651 2.40689 7.51451C3.35439 7.95951 5.23889 8.84651 6.93539 9.66401C13.0519 12.6195 18.2384 12.4215 22.2059 5.98401Z" fill="url(#paint1_linear_665_1693)"/>
<defs>
<linearGradient id="paint0_linear_665_1693" x1="1.00003" y1="17.25" x2="22" y2="17.25" gradientUnits="userSpaceOnUse">
<stop stop-color="#2684FF"/>
<stop offset="0.28" stop-color="#1F7BF6"/>
<stop offset="0.742" stop-color="#0C62DD"/>
<stop offset="0.994" stop-color="#0052CC"/>
</linearGradient>
<linearGradient id="paint1_linear_665_1693" x1="1.99989" y1="6.25001" x2="22.9999" y2="6.25001" gradientUnits="userSpaceOnUse">
<stop stop-color="#0052CC"/>
<stop offset="0.044" stop-color="#0255CF"/>
<stop offset="0.665" stop-color="#1C77F2"/>
<stop offset="1" stop-color="#2684FF"/>
</linearGradient>
</defs>
</svg>
