<svg width="24" height="24" viewBox="0 0 24 24" fill="none" xmlns="http://www.w3.org/2000/svg">
<path d="M20.5 3V21C20.5 21.5525 20.0525 22 19.5 22H17V2H19.5C20.0525 2 20.5 2.4475 20.5 3Z" fill="#CE0D24"/>
<path d="M18.5 3V21H16.5V3H18.5Z" fill="url(#paint0_linear_665_1672)" stroke="#737373" stroke-width="2"/>
<path d="M3.5 3V21C3.5 21.5525 3.9475 22 4.5 22H5.5V2H4.5C3.9475 2 3.5 2.4475 3.5 3Z" fill="#CE0D24"/>
<path d="M17.5 2H5.5V22H17.5C18.0525 22 18.5 21.5525 18.5 21V3C18.5 2.4475 18.0525 2 17.5 2Z" fill="url(#paint1_linear_665_1672)"/>
<path d="M12.5741 14.769H11.1921L10.7916 13.5165H8.78905L8.39255 14.769H7.01855L9.06805 9.139H10.5716L12.5741 14.769ZM10.5011 12.543L9.89655 10.6505C9.85205 10.509 9.82055 10.3405 9.80255 10.144H9.77105C9.75805 10.309 9.72506 10.4725 9.67306 10.635L9.06055 12.543H10.5011Z" fill="#F9F9F9"/>
<path d="M16.4999 14.769H15.3259V14.192H15.3104C15.0409 14.642 14.6419 14.8675 14.1129 14.8675C13.7229 14.8675 13.4159 14.757 13.1924 14.5355C12.9684 14.3145 12.8569 14.019 12.8569 13.65C12.8569 12.87 13.3189 12.42 14.2429 12.2995L15.3344 12.154C15.3344 11.7145 15.0964 11.4945 14.6199 11.4945C14.1409 11.4945 13.6854 11.637 13.2534 11.9225V10.988C13.4259 10.899 13.6624 10.8205 13.9619 10.7525C14.2614 10.6845 14.5344 10.6505 14.7804 10.6505C15.9269 10.6505 16.4999 11.2225 16.4999 12.366V14.769ZM15.3339 13.136V12.865L14.6039 12.959C14.2009 13.0115 13.9994 13.1935 13.9994 13.5045C13.9994 13.646 14.0484 13.7615 14.1464 13.852C14.2444 13.9425 14.3774 13.9875 14.5449 13.9875C14.7779 13.9875 14.9674 13.907 15.1144 13.746C15.2604 13.5855 15.3339 13.382 15.3339 13.136Z" fill="#F9F9F9"/>
<defs>
<linearGradient id="paint0_linear_665_1672" x1="17.486" y1="12" x2="19.057" y2="12" gradientUnits="userSpaceOnUse">
<stop offset="0.441" stop-color="#999998"/>
<stop offset="0.653" stop-color="#C1C1C0"/>
<stop offset="0.88" stop-color="#E5E5E5"/>
<stop offset="1" stop-color="#F3F3F3"/>
</linearGradient>
<linearGradient id="paint1_linear_665_1672" x1="8.39" y1="2.577" x2="15.6075" y2="22.2375" gradientUnits="userSpaceOnUse">
<stop stop-color="#F44F5A"/>
<stop offset="0.443" stop-color="#EE3D4A"/>
<stop offset="1" stop-color="#E52030"/>
</linearGradient>
</defs>
</svg>
