<svg width="24" height="24" viewBox="0 0 24 24" fill="none" xmlns="http://www.w3.org/2000/svg">
<path d="M13.1055 20.8415L20.34 16.8465L19.27 14.5955L13 17.5L13.1055 20.8415Z" fill="#C98E00"/>
<path d="M20 15.75C20 15.8881 19.8881 16 19.75 16C19.6119 16 19.5 15.8881 19.5 15.75C19.5 15.6119 19.6119 15.5 19.75 15.5C19.8881 15.5 20 15.6119 20 15.75Z" fill="#C98E00" stroke="#737373" stroke-width="2"/>
<path d="M19.5 2.5V18H16V2.5C16 2.224 16.224 2 16.5 2H19C19.276 2 19.5 2.224 19.5 2.5Z" fill="#50E6FF"/>
<path d="M16 4.5V18H12.5V5C12.5 4.724 12.724 4.5 13 4.5H16Z" fill="#35C1F1"/>
<path d="M12.5 7V18H9V7.5C9 7.224 9.224 7 9.5 7H12.5Z" fill="#199BE2"/>
<path d="M22.5 16.25C22.5 15.5595 21.9405 15 21.25 15C21.08 15 20.918 15.0345 20.7705 15.096L20.77 15.0955L20.7645 15.098C20.7635 15.0985 20.7625 15.099 20.7615 15.0995L14.5 18L13.75 17.5C14.4405 17.5 15 16.9405 15 16.25C15 15.785 14.743 15.384 14.3665 15.1685L14.3685 15.1605L7.543 11.7275H7.5305C7.2155 11.5845 6.8685 11.5 6.5 11.5C6.141 11.5 5.8015 11.5785 5.4925 11.715H5.4815L1.5 13.5V20L5.545 18.141L13.5005 21.395H13.501C13.6545 21.462 13.8225 21.5 14 21.5C14.2175 21.5 14.419 21.4395 14.5975 21.3415L14.606 21.341L21.8405 17.3465L21.84 17.3455C22.231 17.1345 22.5 16.726 22.5 16.25Z" fill="url(#paint0_linear_665_1682)"/>
<path d="M13.75 17C14.1642 17 14.5 16.6642 14.5 16.25C14.5 15.8358 14.1642 15.5 13.75 15.5C13.3358 15.5 13 15.8358 13 16.25C13 16.6642 13.3358 17 13.75 17Z" fill="#FFDE87"/>
<path d="M14.5 18L13.7555 17.501C13.128 17.471 12.6345 17.267 8.5 15.7445V17.5L14.2755 19.867C14.2755 19.867 13.8665 18.7255 14.5 18Z" fill="url(#paint1_linear_665_1682)"/>
<defs>
<linearGradient id="paint0_linear_665_1682" x1="1.5" y1="16.5" x2="22.5" y2="16.5" gradientUnits="userSpaceOnUse">
<stop stop-color="#FFCF54"/>
<stop offset="0.261" stop-color="#FDCB4D"/>
<stop offset="0.639" stop-color="#F7C13A"/>
<stop offset="1" stop-color="#F0B421"/>
</linearGradient>
<linearGradient id="paint1_linear_665_1682" x1="11.1685" y1="18.184" x2="12.0615" y2="16.644" gradientUnits="userSpaceOnUse">
<stop stop-color="#F0B421" stop-opacity="0"/>
<stop offset="0.512" stop-color="#E9AB12" stop-opacity="0.512"/>
<stop offset="1" stop-color="#E09F00"/>
</linearGradient>
</defs>
</svg>
