<svg width="40" height="40" viewBox="0 0 40 40" fill="none" xmlns="http://www.w3.org/2000/svg">
<rect width="40" height="40" rx="20" fill="#EA580C"/>
<path d="M20 29C24.9706 29 29 24.9706 29 20C29 15.0294 24.9706 11 20 11C15.0294 11 11 15.0294 11 20C11 24.9706 15.0294 29 20 29Z" stroke="white" stroke-width="1.5" stroke-linecap="round" stroke-linejoin="round"/>
<path d="M20.875 24.875C20.875 25.3582 20.4832 25.75 20 25.75C19.5168 25.75 19.125 25.3582 19.125 24.875C19.125 24.3918 19.5168 24 20 24C20.4832 24 20.875 24.3918 20.875 24.875Z" fill="white" stroke="white" stroke-width="0.125"/>
<path d="M20 21.5V20.75C20.5192 20.75 21.0267 20.596 21.4584 20.3076C21.8901 20.0192 22.2265 19.6092 22.4252 19.1295C22.6239 18.6499 22.6758 18.1221 22.5746 17.6129C22.4733 17.1037 22.2233 16.636 21.8562 16.2688C21.489 15.9017 21.0213 15.6517 20.5121 15.5504C20.0029 15.4492 19.4751 15.5011 18.9955 15.6998C18.5158 15.8985 18.1058 16.235 17.8174 16.6666C17.529 17.0983 17.375 17.6058 17.375 18.125" stroke="white" stroke-width="1.5" stroke-linecap="round" stroke-linejoin="round"/>
</svg>
