<svg width="21" height="21" viewBox="0 0 21 21" fill="none" xmlns="http://www.w3.org/2000/svg">
<path d="M14.75 1.125V3.625H17.25C17.5625 3.625 17.875 3.9375 17.875 4.25C17.875 4.60156 17.5625 4.875 17.25 4.875H14.75V7.375C14.75 7.72656 14.4375 8 14.125 8C13.7734 8 13.5 7.72656 13.5 7.375V4.875H11C10.6484 4.875 10.375 4.60156 10.375 4.25C10.375 3.9375 10.6484 3.625 11 3.625H13.5V1.125C13.5 0.8125 13.7734 0.5 14.125 0.5C14.4375 0.5 14.75 0.8125 14.75 1.125ZM6.9375 10.8906C6.78125 11.2422 6.42969 11.5156 6 11.5547L2.60156 12.0625L5.0625 14.4844C5.375 14.7578 5.49219 15.1875 5.41406 15.5781L4.82812 19.0156L7.91406 17.4141C8.26562 17.2188 8.69531 17.2188 9.04688 17.4141L12.1328 19.0156L11.5469 15.5781C11.4688 15.1875 11.5859 14.7969 11.8984 14.4844L14.3594 12.0625L10.9609 11.5938C10.5312 11.5156 10.1797 11.2422 10.0234 10.8906L8.46094 7.80469L6.9375 10.8906ZM7.64062 6.67188C7.99219 5.96875 8.96875 5.96875 9.32031 6.67188L11.1172 10.3438L15.1797 10.9297C15.9609 11.0469 16.2344 11.9844 15.6875 12.5312L12.7578 15.3828L13.4609 19.4062C13.5781 20.1875 12.7969 20.7734 12.0938 20.4219L8.5 18.5078L4.86719 20.4219C4.16406 20.7734 3.38281 20.1875 3.5 19.4062L4.20312 15.3828L1.27344 12.5312C0.726562 11.9844 1 11.0469 1.78125 10.9297L5.84375 10.3438L7.64062 6.67188ZM18.5 6.75C18.8125 6.75 19.125 7.0625 19.125 7.375V8.625H20.375C20.6875 8.625 21 8.9375 21 9.25C21 9.60156 20.6875 9.875 20.375 9.875H19.125V11.125C19.125 11.4766 18.8125 11.75 18.5 11.75C18.1484 11.75 17.875 11.4766 17.875 11.125V9.875H16.625C16.2734 9.875 16 9.60156 16 9.25C16 8.9375 16.2734 8.625 16.625 8.625H17.875V7.375C17.875 7.0625 18.1484 6.75 18.5 6.75Z" fill="#A3A3A3"/>
</svg>
