<svg width="20" height="19" viewBox="0 0 20 19" fill="none" xmlns="http://www.w3.org/2000/svg">
<path d="M10.625 12.3906L12.0312 10.9453C12.2656 10.7109 12.6953 10.7109 12.9297 10.9453C13.1641 11.1797 13.1641 11.6094 12.9297 11.8438L10.4297 14.3438C10.1953 14.5781 9.76562 14.5781 9.53125 14.3438L7.03125 11.8438C6.79688 11.6094 6.79688 11.1797 7.03125 10.9453C7.26562 10.7109 7.69531 10.7109 7.92969 10.9453L9.375 12.3906V8.25H2.5C1.09375 8.25 0 7.15625 0 5.75V3.25C0 1.88281 1.09375 0.75 2.5 0.75H17.5C18.8672 0.75 20 1.88281 20 3.25V5.75C20 7.15625 18.8672 8.25 17.5 8.25H10.625V12.3906ZM18.75 5.75V3.25C18.75 2.58594 18.1641 2 17.5 2H2.5C1.79688 2 1.25 2.58594 1.25 3.25V5.75C1.25 6.45312 1.79688 7 2.5 7H17.5C18.1641 7 18.75 6.45312 18.75 5.75ZM2.5 18.25C1.09375 18.25 0 17.1562 0 15.75V13.25C0 11.8828 1.09375 10.75 2.5 10.75H4.375C4.6875 10.75 5 11.0625 5 11.375C5 11.7266 4.6875 12 4.375 12H2.5C1.79688 12 1.25 12.5859 1.25 13.25V15.75C1.25 16.4531 1.79688 17 2.5 17H17.5C18.1641 17 18.75 16.4531 18.75 15.75V13.25C18.75 12.5859 18.1641 12 17.5 12H15.625C15.2734 12 15 11.7266 15 11.375C15 11.0625 15.2734 10.75 15.625 10.75H17.5C18.8672 10.75 20 11.8828 20 13.25V15.75C20 17.1562 18.8672 18.25 17.5 18.25H2.5Z" fill="#A3A3A3"/>
</svg>
