<svg width="20" height="21" viewBox="0 0 20 21" fill="none" xmlns="http://www.w3.org/2000/svg">
<path d="M9.33594 0.734375C9.76562 0.578125 10.1953 0.578125 10.625 0.734375L18.75 3.70312C19.4922 3.97656 20 4.67969 20 5.46094V15.5781C20 16.3594 19.4922 17.0625 18.75 17.3359L10.625 20.3047C10.1953 20.4609 9.76562 20.4609 9.33594 20.3047L1.21094 17.3359C0.46875 17.0625 0 16.3594 0 15.5781V5.46094C0 4.67969 0.46875 3.97656 1.21094 3.70312L9.33594 0.734375ZM10.1953 1.90625C10.0391 1.82812 9.92188 1.82812 9.76562 1.90625L1.71875 4.83594L10 8.07812L18.2422 4.83594L10.1953 1.90625ZM1.64062 16.1641L9.375 19.0156V9.17188L1.25 6.00781V15.5781C1.25 15.8516 1.40625 16.0859 1.64062 16.1641ZM10.625 19.0156L18.3203 16.1641C18.5547 16.0859 18.75 15.8516 18.75 15.5781V6.00781L10.625 9.17188V19.0156Z" fill="#A3A3A3"/>
</svg>
